<svg width="116" height="35" viewBox="0 0 116 35" fill="none" xmlns="http://www.w3.org/2000/svg">
<rect width="116" height="35" fill="#1E1E1E"></rect>
<g clip-path="url(#clip0_0_1)">

<path d="M0.920044 24.064V21.902L7.03804 20.798V23.788C7.06871 25.4133 7.48271 26.64 8.28004 27.468C9.10804 28.2653 10.1967 28.664 11.546 28.664C12.8647 28.664 13.9074 28.2347 14.674 27.376C15.4714 26.5173 15.87 25.3673 15.87 23.926V1.38598H22.218V23.926C22.218 26.9313 21.2214 29.4767 19.228 31.562C17.2347 33.6473 14.6894 34.69 11.592 34.69C8.37204 34.69 5.78071 33.724 3.81804 31.792C1.88604 29.8293 0.920044 27.2533 0.920044 24.064Z" fill="black" data-index="1" style="visibility: hidden;"></path>

<path d="M67.6578 0.695984V29.906C67.6578 31.4087 67.7191 32.7733 67.8418 34H61.9998C61.8464 33.2333 61.7698 32.3593 61.7698 31.378C61.2484 32.3287 60.4204 33.0953 59.2858 33.678C58.1818 34.2607 56.8938 34.552 55.4218 34.552C52.2018 34.552 49.5491 33.4327 47.4638 31.194C45.4091 28.9247 44.3818 26.0727 44.3818 22.638C44.3818 19.2953 45.3938 16.4893 47.4178 14.22C49.4724 11.9507 52.0791 10.816 55.2378 10.816C58.4884 10.816 60.6198 11.7513 61.6318 13.622V0.695984H67.6578ZM50.5458 22.638C50.5458 24.6313 51.0671 26.2107 52.1098 27.376C53.1524 28.5107 54.5018 29.078 56.1578 29.078C57.7831 29.078 59.1171 28.4953 60.1598 27.33C61.2024 26.1647 61.7238 24.5853 61.7238 22.592C61.7238 20.6293 61.2024 19.096 60.1598 17.992C59.1171 16.8573 57.7831 16.29 56.1578 16.29C54.5324 16.29 53.1831 16.8573 52.1098 17.992C51.0671 19.1267 50.5458 20.6753 50.5458 22.638Z" fill="black" data-index="3" style="visibility: hidden;"></path>

<path d="M99.87 27.422C101.005 28.5567 102.369 29.124 103.964 29.124C105.559 29.124 106.908 28.5567 108.012 27.422C109.147 26.2873 109.714 24.708 109.714 22.684C109.714 20.66 109.147 19.0807 108.012 17.946C106.908 16.8113 105.559 16.244 103.964 16.244C102.369 16.244 101.005 16.8113 99.87 17.946C98.766 19.0807 98.214 20.66 98.214 22.684C98.214 24.708 98.766 26.2873 99.87 27.422ZM95.454 14.082C97.7233 11.8127 100.56 10.678 103.964 10.678C107.368 10.678 110.189 11.8127 112.428 14.082C114.697 16.3513 115.832 19.2187 115.832 22.684C115.832 26.1493 114.697 29.0167 112.428 31.286C110.189 33.5553 107.368 34.69 103.964 34.69C100.56 34.69 97.7233 33.5553 95.454 31.286C93.2153 29.0167 92.096 26.1493 92.096 22.684C92.096 19.2187 93.2153 16.3513 95.454 14.082Z" fill="black" data-index="5" style="visibility: hidden;"></path>
</g>
<defs>
<clipPath id="clip0_0_1">
<rect width="116" height="35" fill="white"></rect>
</clipPath>
</defs>
</svg>