<svg width="116" height="35" viewBox="0 0 116 35" fill="none" xmlns="http://www.w3.org/2000/svg">
<rect width="116" height="35" fill="#1E1E1E"/>
<g clip-path="url(#clip0_0_1)">
<path d="M75 29L84.5 32L92.5 24L102.5 31L113 29L108.5 14.5L92.5 19.5L83.5 14.5L74 16L75 29Z" fill="#F1A501"/>
<path d="M0.920044 24.064V21.902L7.03804 20.798V23.788C7.06871 25.4133 7.48271 26.64 8.28004 27.468C9.10804 28.2653 10.1967 28.664 11.546 28.664C12.8647 28.664 13.9074 28.2347 14.674 27.376C15.4714 26.5173 15.87 25.3673 15.87 23.926V1.38598H22.218V23.926C22.218 26.9313 21.2214 29.4767 19.228 31.562C17.2347 33.6473 14.6894 34.69 11.592 34.69C8.37204 34.69 5.78071 33.724 3.81804 31.792C1.88604 29.8293 0.920044 27.2533 0.920044 24.064Z" fill="black"/>
<path d="M43.9627 27.836C43.9627 25.904 43.334 24.3553 42.0767 23.19C40.8193 22.0247 39.194 21.2887 37.2007 20.982L31.6347 20.154C30.5 20.0007 29.9327 19.464 29.9327 18.544C29.9327 17.6853 30.27 16.98 30.9447 16.428C31.5887 15.876 32.524 15.6 33.7507 15.6C35.0387 15.6 36.066 15.9527 36.8327 16.658C37.5687 17.3633 37.9827 18.2373 38.0747 19.28L43.5027 18.13C43.288 16.1673 42.322 14.4347 40.6047 12.932C38.8873 11.4293 36.618 10.678 33.7967 10.678C30.4233 10.678 27.9393 11.4907 26.3447 13.116C24.75 14.7107 23.9527 16.7653 23.9527 19.28V30.412C23.9527 31.7613 23.8607 32.9573 23.6767 34H29.2887C29.442 33.3253 29.5187 32.4207 29.5187 31.286C30.96 33.5247 33.1833 34.644 36.1887 34.644C38.5193 34.644 40.4053 33.9693 41.8467 32.62C43.2573 31.2707 43.9627 29.676 43.9627 27.836ZM34.9007 30.09C33.4593 30.09 32.2787 29.6913 31.3587 28.894C30.408 28.066 29.9327 26.7167 29.9327 24.846V23.834L35.0387 24.616C36.9093 24.892 37.8447 25.8427 37.8447 27.468C37.8447 28.204 37.584 28.8327 37.0627 29.354C36.5413 29.8447 35.8207 30.09 34.9007 30.09Z" fill="black"/>
<path d="M67.6578 0.695984V29.906C67.6578 31.4087 67.7191 32.7733 67.8418 34H61.9998C61.8464 33.2333 61.7698 32.3593 61.7698 31.378C61.2484 32.3287 60.4204 33.0953 59.2858 33.678C58.1818 34.2607 56.8938 34.552 55.4218 34.552C52.2018 34.552 49.5491 33.4327 47.4638 31.194C45.4091 28.9247 44.3818 26.0727 44.3818 22.638C44.3818 19.2953 45.3938 16.4893 47.4178 14.22C49.4724 11.9507 52.0791 10.816 55.2378 10.816C58.4884 10.816 60.6198 11.7513 61.6318 13.622V0.695984H67.6578ZM50.5458 22.638C50.5458 24.6313 51.0671 26.2107 52.1098 27.376C53.1524 28.5107 54.5018 29.078 56.1578 29.078C57.7831 29.078 59.1171 28.4953 60.1598 27.33C61.2024 26.1647 61.7238 24.5853 61.7238 22.592C61.7238 20.6293 61.2024 19.096 60.1598 17.992C59.1171 16.8573 57.7831 16.29 56.1578 16.29C54.5324 16.29 53.1831 16.8573 52.1098 17.992C51.0671 19.1267 50.5458 20.6753 50.5458 22.638Z" fill="black"/>
<path d="M76.6867 27.422C77.8214 28.5567 79.1861 29.124 80.7807 29.124C82.3754 29.124 83.7247 28.5567 84.8287 27.422C85.9634 26.2873 86.5307 24.708 86.5307 22.684C86.5307 20.66 85.9634 19.0807 84.8287 17.946C83.7247 16.8113 82.3754 16.244 80.7807 16.244C79.1861 16.244 77.8214 16.8113 76.6867 17.946C75.5827 19.0807 75.0307 20.66 75.0307 22.684C75.0307 24.708 75.5827 26.2873 76.6867 27.422ZM72.2707 14.082C74.54 11.8127 77.3767 10.678 80.7807 10.678C84.1847 10.678 87.0061 11.8127 89.2447 14.082C91.514 16.3513 92.6487 19.2187 92.6487 22.684C92.6487 26.1493 91.514 29.0167 89.2447 31.286C87.0061 33.5553 84.1847 34.69 80.7807 34.69C77.3767 34.69 74.54 33.5553 72.2707 31.286C70.032 29.0167 68.9127 26.1493 68.9127 22.684C68.9127 19.2187 70.032 16.3513 72.2707 14.082Z" fill="black"/>
<path d="M99.87 27.422C101.005 28.5567 102.369 29.124 103.964 29.124C105.559 29.124 106.908 28.5567 108.012 27.422C109.147 26.2873 109.714 24.708 109.714 22.684C109.714 20.66 109.147 19.0807 108.012 17.946C106.908 16.8113 105.559 16.244 103.964 16.244C102.369 16.244 101.005 16.8113 99.87 17.946C98.766 19.0807 98.214 20.66 98.214 22.684C98.214 24.708 98.766 26.2873 99.87 27.422ZM95.454 14.082C97.7233 11.8127 100.56 10.678 103.964 10.678C107.368 10.678 110.189 11.8127 112.428 14.082C114.697 16.3513 115.832 19.2187 115.832 22.684C115.832 26.1493 114.697 29.0167 112.428 31.286C110.189 33.5553 107.368 34.69 103.964 34.69C100.56 34.69 97.7233 33.5553 95.454 31.286C93.2153 29.0167 92.096 26.1493 92.096 22.684C92.096 19.2187 93.2153 16.3513 95.454 14.082Z" fill="black"/>
</g>
<defs>
<clipPath id="clip0_0_1">
<rect width="116" height="35" fill="white"/>
</clipPath>
</defs>
</svg>
